<svg xmlns="http://www.w3.org/2000/svg" xmlns:xlink="http://www.w3.org/1999/xlink" viewBox="0 0 501 511.59"><defs><style>.cls-1{font-size:410px;fill:none;stroke:#000;stroke-miterlimit:10;font-family:ArialMT, Arial;letter-spacing:-0.17em;}.cls-2{fill:url(#linear-gradient);}</style><linearGradient id="linear-gradient" x1="250.11" y1="356.59" x2="250.11" y2="110" gradientUnits="userSpaceOnUse"><stop offset="0" stop-color="#fff"/><stop offset="0.18" stop-color="#f6f9f7"/><stop offset="0.48" stop-color="#dce8e0"/><stop offset="0.87" stop-color="#b3ccbb"/><stop offset="1" stop-color="#a3c1ad"/></linearGradient></defs><g id="Layer_2" data-name="Layer 2"><g id="Layer_1-2" data-name="Layer 1"><rect width="501" height="501" rx="66.53"/><text class="cls-1" transform="translate(3.5 377.96)">AR</text><path class="cls-2" d="M2.9,378,115.61,84.47h41.84L277.57,378H233.32l-34.23-88.89H76.37L44.14,378ZM87.58,257.44h99.5l-30.63-81.28q-14-37-20.82-60.86a374.07,374.07,0,0,1-15.82,56.06Z"/><path class="cls-2" d="M238.68,378V84.47H368.81q39.22,0,59.65,7.91t32.64,27.93a83.39,83.39,0,0,1,12.21,44.24q0,31.23-20.22,52.65t-62.46,27.23Q406,251.84,414.05,259q17,15.61,32.23,39L497.33,378H448.48L409.64,316.9q-17-26.43-28-40.44T361.9,256.84A58.53,58.53,0,0,0,344.18,249q-6.6-1.4-21.62-1.4h-45V378Zm38.84-164H361q26.63,0,41.64-5.51t22.82-17.61a47.63,47.63,0,0,0,7.81-26.33q0-20.82-15.12-34.23T370.41,116.9H277.52Z"/></g></g></svg>
